<svg xmlns="http://www.w3.org/2000/svg" viewBox="0 0 32 32" fill="none">
  <rect width="32" height="32" rx="8" fill="url(#bg)"/>
  <defs>
    <linearGradient id="bg" x1="4" y1="4" x2="28" y2="28" gradientUnits="userSpaceOnUse">
      <stop stop-color="#4a7c88"/>
      <stop offset="1" stop-color="#c4947f"/>
    </linearGradient>
  </defs>
  <path
    d="M10 7h5.2c3.2 0 5.8 2.6 5.8 5.8 0 2.2-1.2 4.1-3 5.1 2.1 1 3.5 3.1 3.5 5.4 0 3.6-2.9 6.5-6.5 6.5H10V7zm2.8 2.8v4.4h2.4c1.6 0 2.9-1.3 2.9-2.9s-1.3-2.9-2.9-2.9h-2.4zm0 7.2v7.2h3.1c1.9 0 3.4-1.5 3.4-3.4s-1.5-3.4-3.4-3.4h-3.1z"
    fill="#f2f8f9"
  />
</svg>
